<?xml version="1.0" standalone="no"?>
<!DOCTYPE svg PUBLIC "-//W3C//DTD SVG 1.1//EN" "http://www.w3.org/Graphics/SVG/1.1/DTD/svg11.dtd">
<svg xmlns="http://www.w3.org/2000/svg" id="Layer_1" data-name="Layer 1" version="1.1" viewBox="0 0 200 50" width="200" height="50">
  <defs>
    <style>
      .cls-1 {
        fill: #f58b39;
      }

      .cls-1, .cls-2 {
        stroke-width: 0px;
      }

      .cls-2 {
        fill: #00a8e2;
      }
    </style>
  </defs>
  <path class="cls-2" d="M29.36,11.03c-.53-6.3-6.36-6.73-6.36-6.73h-13.1c-.85,0-1.37.23-1.59.83-.55,1.5-.31,1.77.31,2.06.71.31.38,1.16.38,1.16l-4.05,13.47s-.17.32-.99.52c-.55.13-1.05.77-1.38,1.63-.44,1.19,1.13,1.19,1.13,1.19h13.95c6.73-.31,12.24-7.84,11.7-14.13M20.82,13.62c-1.24,5.48-2.49,8.2-7.01,8.2-.61,0-.82-.52-.61-1.23l3.51-11.71s.34-1.26,1.27-1.26,4.11.43,2.84,6.01"/>
  <path class="cls-2" d="M37.91,22.38c-.5-.2-.31-.88-.31-.88l3.97-13.24c.18-.63.79-.92,1.63-1.06.86-.14,1.08-.89,1.38-1.89.2-.67-.35-1-.88-1s-.53,0-9.85,0c-.88,0-1.13.76-1.3,1.33-.18.6-.42,1.4.59,1.56,1.06.17.7,1.22.7,1.22l-4.02,13.42s-.13.37-.86.52c-.86.19-1.43.13-2,1.92-.29.91.95.9.95.9h9.93c.69,0,.8-.44,1.01-1.03.45-1.33-.44-1.57-.93-1.76"/>
  <path class="cls-2" d="M70.18,22.19c-.72-.21-.51-1-.51-1l3.96-13.18c.36-.62.67-.66,1.56-.85.89-.2,1.15-1.16,1.39-1.93.23-.77-.96-.94-.96-.94h-6.82c-.62,0-1.07.69-1.07.69,0,0-7.53,9.62-7.94,10.02-.31.31-.61.39-.86.31-.22-.06-.36-.13-.55-.5-.13-.26-3.12-9.69-3.12-9.69-.29-.89-1.02-.83-1.02-.83h-6.56c-.45,0-.85.56-1.19,1.7-.23.76.19,1.06.72,1.17.98.2.76.95.76.95l-4.07,13.57s-.15.41-.9.54c-.8.13-1.44.23-1.97,2-.14.5.33.77.54.77h5.81c.59,0,.83-.59,1.1-1.48.27-.89-.5-1.03-.97-1.32-.62-.37-.41-.83-.41-.83,0,0,1.73-5.95,1.83-6.3.1-.35.19-.65.46-.65.21,0,.35.41.46.73.1.31,2.43,7.74,2.64,8.4.21.66.55,1.75,1.75,1.61,1.19-.13,2.12-1.5,2.43-1.9.31-.39,5.98-7.69,6.71-8.42.49-.49.8-.5,1.06-.39.25.11.27.5.2.86-.14.67-1.89,6.28-1.89,6.28,0,0-.17.54-1.05.61-.94.07-1.37.41-1.86,2.07-.21.7.59.86.59.86h9.52c.76,0,.92-.86,1.16-1.66.24-.8-.46-1.13-.91-1.27"/>
  <path class="cls-2" d="M92.64,23.96l1.62-5.4c.19-.62-.37-.65-.37-.65h-1.26c-1.07,0-.71,1.4-2.32,2.86-1.3,1.17-2.21,1.06-2.21,1.06h-3.56c-.83,0-.43-1.02-.43-1.02l1.14-3.82c.13-.43.74-.52.74-.52h.8c.47,0,.54.83.32,1.69-.24.96.56.94.56.94h1.17c.59,0,.77-.75.77-.75l2.2-7.35c.23-.77-.66-.66-.66-.66h-1.09c-.79,0-1,.86-1.33,1.43-.33.56-1.04.58-1.04.58h-.64c-.5,0-.13-.94-.13-.94l.87-2.89c.3-1,1.02-.9,1.02-.9h3.53c1.54,0,1.56,2.53,1.56,3.17,0,.94.71.9.71.9h1.23s.43.04.58-.36c.15-.4,1.73-5.77,1.73-5.77.38-1.27-.69-1.27-.69-1.27h-17.45c-.63,0-.79.3-1.15,1.48-.31,1.07.33,1.27.8,1.42.69.21.59,1.04.59,1.04l-4.08,13.59s-.16.45-.92.55c-.76.09-1.24-.02-1.93,1.89-.34.9.6.89.6.89h17.07c1.17.01,1.63-1.19,1.63-1.19"/>
  <path class="cls-2" d="M101.02,7.61c.66.29.51.77.51.77l-4.03,13.43s-.23.44-1.06.57c-.69.1-1.23-.04-1.79,1.83-.23.75.43.94.71.94h10.01c.52,0,.81-.35,1.13-1.4.33-1.1-.33-1.11-.9-1.42-.56-.31-.49-1.03-.49-1.03l1.36-4.68s.17-.74.7-.74.7.69.7.69l1.86,7.61c.41,1.17,1.73.97,1.73.97h4.02c2.35,0,4.15-1.8,4.45-2.82.31-1.02-.11-1.29-.73-1.14-.62.14-1.23-.83-1.23-.83l-3.09-5.22s5.05-2.56,4.82-6.81c-.24-4.25-4.65-4.05-4.65-4.05h-13.58c-.89,0-1.2,1.21-1.46,2.05-.26.85.43,1.03,1,1.27M107.9,12.04c.16-.49,1.12-3.72,1.12-3.72,0,0,.24-.71,1.04-.71s2.09.54,1.71,2.23c-.39,1.7-1.54,3.03-3.35,3.03-.39,0-.67-.34-.51-.83"/>
  <path class="cls-2" d="M129.75,25.16c3.21,0,6.06-.53,6.83-1.87.77-1.33,1.46-3.87,1.61-4.39.16-.53-.32-.6-.32-.6h-1.09c-.5,0-.69.69-.69.69,0,0-1.13,2.93-3.85,2.93s-2.91-5.46-2.15-8.02c.77-2.56,2.09-5.82,4.46-5.82s3.45,2.52,3.58,3c.26.9.81.8.81.8h.83c.56,0,.76-.76.76-.76l1.86-6.19c.2-.64-.63-.63-.63-.63h-.96c-.51,0-.79.37-1.1.55-.44.24-.83.21-1.36,0-.53-.2-3.3-.99-6.29-.36-2.97.62-9.18,3.18-10.45,11.31-1.27,8.12,4.94,9.37,8.15,9.37"/>
  <path class="cls-2" d="M149.78,25.16c8.93,0,12.31-6.99,13.56-10.41,1.25-3.43,1.3-10.47-7.86-10.47s-13.84,8.94-14.44,14.87c-.6,5.93,7.41,6.01,8.75,6.01M149.82,14.15c1.57-4.9,3.89-6.11,4.68-6.11,2.17,0,1.57,3.46,1.16,5.92-.41,2.45-2.87,7.94-4.86,7.94s-2.55-2.85-.97-7.75"/>
  <path class="cls-1" d="M156.02,37.93c44.72,0,40.68-30.7,40.68-30.7-4.81,18.82-21.51,24.59-40.51,24.59-9.21,0-60.98-.01-66.46-.01l-3.1,6.12h69.39Z"/>
  <path class="cls-2" d="M197.43,16.07c-3.5,16.03-17.45,23.58-41.89,23.58-9.28,0-64.56-.01-69.78-.01l-3.1,6.12s33.07-.01,77.67-.01c40.41,0,37.1-29.67,37.1-29.67"/>
</svg>